<mxfile host="Electron" agent="Mozilla/5.0 (Macintosh; Intel Mac OS X 10_15_7) AppleWebKit/537.36 (KHTML, like Gecko) draw.io/28.0.4 Chrome/138.0.7204.97 Electron/37.2.1 Safari/537.36" version="28.0.4" pages="1">
  <diagram id="57f71325befd42d9" name="Publishing Events To Cmdb Siem Graph Td">
    <mxGraphModel dx="706" dy="604" grid="1" gridSize="10" guides="1" tooltips="1" connect="1" arrows="1" fold="1" page="1" pageScale="1" pageWidth="827" pageHeight="1169" math="0" shadow="0">
      <root>
        <mxCell id="0" />
        <mxCell id="1" parent="0" />
        <UserObject label="" mermaidData="{&quot;data&quot;:&quot;graph TD\n    subgraph \&quot;RH OVE Cluster\&quot;\n        K8S_API[\&quot;Kubernetes API Server\&quot;]\n        FALCO[\&quot;Falco Security Runtime\&quot;]\n        OPA_GATEKEEPER[\&quot;OPA Gatekeeper\&quot;]\n        KUBE_EVENTS[\&quot;Kubernetes Events\&quot;]\n        AUDIT_LOGS[\&quot;Audit Logs\&quot;]\n    end\n\n    subgraph \&quot;Event Processing Layer\&quot;\n        KUBEWATCH[\&quot;Kubewatch\&quot;]\n        BOTKUBE[\&quot;Botkube\&quot;]\n        EVENT_EXPORTER[\&quot;Event Exporter\&quot;]\n        FLUENT_BIT[\&quot;Fluent Bit\&quot;]\n        CUSTOM_CONTROLLER[\&quot;Custom Event Controller\&quot;]\n    end\n\n    subgraph \&quot;Event Bus\&quot;\n        NATS[\&quot;NATS JetStream\&quot;]\n        KAFKA[\&quot;Apache Kafka\&quot;]\n        RED_HAT_AMQ[\&quot;Red Hat AMQ Streams\&quot;]\n    end\n\n    subgraph \&quot;Integration Adapters\&quot;\n        SERVICENOW_ADAPTER[\&quot;ServiceNow Adapter\&quot;]\n        GLPI_ADAPTER[\&quot;GLPI Adapter\&quot;]\n        SIEM_ADAPTER[\&quot;SIEM Adapter\&quot;]\n        WEBHOOK_ADAPTER[\&quot;Webhook Adapter\&quot;]\n    end\n\n    subgraph \&quot;Target Systems\&quot;\n        SERVICENOW[\&quot;ServiceNow CMDB\&quot;]\n        GLPI[\&quot;GLPI ITSM\&quot;]\n        SPLUNK[\&quot;Splunk SIEM\&quot;]\n        ELASTIC_SIEM[\&quot;Elastic Security\&quot;]\n        QRadar[\&quot;IBM QRadar\&quot;]\n    end\n\n    K8S_API --&gt; KUBE_EVENTS\n    FALCO --&gt; EVENT_EXPORTER\n    OPA_GATEKEEPER --&gt; KUBEWATCH\n    AUDIT_LOGS --&gt; FLUENT_BIT\n    \n    KUBE_EVENTS --&gt; KUBEWATCH\n    KUBE_EVENTS --&gt; BOTKUBE\n    KUBE_EVENTS --&gt; EVENT_EXPORTER\n    KUBE_EVENTS --&gt; CUSTOM_CONTROLLER\n    \n    KUBEWATCH --&gt; NATS\n    BOTKUBE --&gt; KAFKA\n    EVENT_EXPORTER --&gt; RED_HAT_AMQ\n    FLUENT_BIT --&gt; NATS\n    CUSTOM_CONTROLLER --&gt; KAFKA\n    \n    NATS --&gt; SERVICENOW_ADAPTER\n    KAFKA --&gt; GLPI_ADAPTER\n    RED_HAT_AMQ --&gt; SIEM_ADAPTER\n    NATS --&gt; WEBHOOK_ADAPTER\n    \n    SERVICENOW_ADAPTER --&gt; SERVICENOW\n    GLPI_ADAPTER --&gt; GLPI\n    SIEM_ADAPTER --&gt; SPLUNK\n    SIEM_ADAPTER --&gt; ELASTIC_SIEM\n    SIEM_ADAPTER --&gt; QRadar\n    WEBHOOK_ADAPTER --&gt; SERVICENOW\n    WEBHOOK_ADAPTER --&gt; GLPI\n\n    style K8S_API fill:#f9f,stroke:#333\n    style NATS fill:#ffa,stroke:#333\n    style KAFKA fill:#aaf,stroke:#333\n    style RED_HAT_AMQ fill:#afa,stroke:#333&quot;}" id="6cb4b4b80d784b6e">
          <mxCell style="shape=image;noLabel=1;verticalAlign=top;imageAspect=1;image=data:image/svg+xml,PHN2ZyB3aWR0aD0iMjAwIiBoZWlnaHQ9IjIwMCIgeG1sbnM9Imh0dHA6Ly93d3cudzMub3JnLzIwMDAvc3ZnIj48cmVjdCB3aWR0aD0iMjAwIiBoZWlnaHQ9IjIwMCIgZmlsbD0iI2Y5ZjlmOSIgc3Ryb2tlPSIjY2NjIi8+PHRleHQgeD0iMTAwIiB5PSIxMDAiIHRleHQtYW5jaG9yPSJtaWRkbGUiIGZvbnQtZmFtaWx5PSJBcmlhbCIgZm9udC1zaXplPSIxNCIgZmlsbD0iIzMzMyI+TWVybWFpZCBEaWFncmFtPC90ZXh0Pjwvc3ZnPg==;" vertex="1" parent="1">
            <mxGeometry x="260" y="130" width="200" height="200" as="geometry" />
          </mxCell>
        </UserObject>
      </root>
    </mxGraphModel>
  </diagram>
</mxfile>